# xmcd CD database file
#
# Track frame offsets:
#	150
#	28419
#	36485
#	57684
#	75048
#	83993
#	97282
#	106191
#	126971
#	149528
#	164429
#	172561
#	199337
#	212739
#	220453
#	225652
#
# Disc length: 3184 seconds
#
# Revision: 4
# Processed by: cddbd v1.5.2PL0 Copyright (c) Steve Scherf et al.
# Submitted via: CDex 1.51
#
DISCID=eb0c6e10
DTITLE=Léo Délibes - Suites de ballets  (Georges Walther, Orchestre des concerts de Paris)
DYEAR=1900
DGENRE=Ballet
TTITLE0=Coppélia - Prélude et Mazurka
TTITLE1=Coppélia - Valse Lente
TTITLE2=Coppélia - Thème Slave Varié
TTITLE3=Coppélia - Csardas
TTITLE4=Coppélia - Scène '' Nocturne ''
TTITLE5=Coppélia - Musique des Automates
TTITLE6=Coppélia - Valse de la Poupée
TTITLE7=Coppélia - Valse des Heures
TTITLE8=Sylvia - Prélude et les Chasseresses
TTITLE9=Sylvia - Intermezzo et Valse Lente '' L'Escarpolette ''
TTITLE10=Sylvia - Divertissement - Pizzicati
TTITLE11=Sylvia - Marche et Cortège de Bacchus
TTITLE12=La Source - Pas des Voiles
TTITLE13=La Source - Andante
TTITLE14=La Source - Variations
TTITLE15=La Source - Danse Circacienne
EXTD=
EXTT0=
EXTT1=
EXTT2=
EXTT3=
EXTT4=
EXTT5=
EXTT6=
EXTT7=
EXTT8=
EXTT9=
EXTT10=
EXTT11=
EXTT12=
EXTT13=
EXTT14=
EXTT15=
PLAYORDER=
